<?xml version="1.0" standalone="no"?>
<!DOCTYPE svg PUBLIC "-//W3C//DTD SVG 20010904//EN"
 "http://www.w3.org/TR/2001/REC-SVG-20010904/DTD/svg10.dtd">
<svg version="1.0" xmlns="http://www.w3.org/2000/svg"
 width="500.000000pt" height="500.000000pt" viewBox="0 0 500.000000 500.000000"
 preserveAspectRatio="xMidYMid meet">

<g transform="translate(0.000000,500.000000) scale(0.100000,-0.100000)"
fill="#000000" stroke="none">
<path d="M2758 3398 l-3 -263 -200 -125 -200 -126 -3 -217 -2 -217 40 0 40 0
0 184 0 184 205 133 205 134 0 243 0 242 100 0 100 0 0 -515 0 -515 -95 0 -95
0 0 240 c0 132 -3 240 -7 240 -4 0 -58 -33 -120 -72 l-113 -73 0 -212 0 -213
265 0 265 0 0 605 0 605 -190 0 -190 0 -2 -262z m2 -703 l0 -155 -35 0 -35 0
0 133 0 132 33 22 c17 12 33 22 35 22 1 1 2 -69 2 -154z"/>
<path d="M982 2133 c-47 -130 -102 -286 -102 -289 0 -2 15 -4 34 -4 29 0 34 4
42 33 9 31 12 32 66 35 56 3 56 3 63 -28 8 -34 21 -43 58 -38 l24 3 -57 155
c-55 151 -57 155 -87 158 -26 3 -32 -1 -41 -25z m56 -112 c16 -52 16 -51 -18
-51 -16 0 -30 3 -30 6 0 17 24 84 30 84 4 0 12 -17 18 -39z"/>
<path d="M1270 2043 c0 -127 13 -168 61 -193 28 -16 99 -16 127 -1 49 26 62
66 62 194 l0 118 -32 -3 -33 -3 -3 -115 c-2 -88 -6 -118 -19 -132 -20 -22 -42
-23 -71 -2 -21 14 -22 22 -22 135 l0 119 -35 0 -35 0 0 -117z"/>
<path d="M1640 2130 c0 -28 2 -30 40 -30 l40 0 0 -130 0 -130 30 0 30 0 0 130
0 130 40 0 c38 0 40 2 40 30 l0 30 -110 0 -110 0 0 -30z"/>
<path d="M2043 2139 c-127 -81 -96 -269 50 -303 64 -15 156 36 183 101 31 73
-1 171 -66 205 -48 25 -126 24 -167 -3z m151 -70 c51 -60 26 -159 -45 -173
-95 -19 -157 97 -93 173 21 26 33 31 69 31 36 0 48 -5 69 -31z"/>
<path d="M2420 2000 l0 -160 30 0 30 0 0 96 c0 58 4 93 10 89 5 -3 22 -28 37
-55 15 -28 30 -50 33 -50 3 0 21 28 40 63 l35 62 3 -102 3 -103 29 0 30 0 0
160 0 160 -32 0 c-30 0 -36 -6 -68 -65 -19 -36 -37 -65 -40 -65 -3 0 -22 30
-43 65 -33 57 -42 65 -67 65 l-30 0 0 -160z"/>
<path d="M2917 2143 c-3 -10 -28 -82 -56 -160 l-50 -143 34 0 c30 0 35 4 43
33 8 31 10 32 64 35 54 3 55 3 64 -30 9 -29 14 -33 48 -36 21 -2 37 1 35 6 -2
5 -29 77 -59 160 l-55 152 -31 0 c-22 0 -33 -6 -37 -17z m40 -171 c-16 -2 -31
-2 -33 1 -2 2 4 26 13 53 l16 49 17 -50 17 -50 -30 -3z"/>
<path d="M3180 2130 c0 -28 2 -30 40 -30 l40 0 0 -130 0 -130 30 0 30 0 0 130
0 130 40 0 c38 0 40 2 40 30 l0 30 -110 0 -110 0 0 -30z"/>
<path d="M3520 2000 l0 -160 90 0 90 0 0 30 c0 30 -1 30 -55 30 l-55 0 0 40 0
40 40 0 c38 0 40 2 40 30 0 28 -2 30 -40 30 -38 0 -40 2 -40 30 0 30 1 30 55
30 54 0 55 0 55 30 l0 30 -90 0 -90 0 0 -160z"/>
<path d="M3840 2001 l0 -158 38 -6 c128 -20 217 55 209 176 -6 101 -62 147
-179 147 l-68 0 0 -159z m155 79 c26 -22 39 -83 25 -124 -14 -44 -44 -66 -87
-66 l-33 0 0 103 c0 57 2 106 6 109 7 8 72 -8 89 -22z"/>
</g>
</svg>
