<svg xmlns="http://www.w3.org/2000/svg" width="512" height="512" style="" viewBox="0 0 512 512"><rect data-fl-background="" x="0" y="0" width="512" height="512" fill="transparent"></rect><g transform="matrix(0.5984180410496507, 0, 0, 0.5984180410496507, 94.27956289873897, 133.69574932609746)"><path fill="rgba(255,255,255,1)" d="M399.338 48H288l61.435 46.076a4 4 0 0 1 1.246 4.846L304 186.333 88 344H348A108 108 0 0 0 456 236V96h0A57.443 57.443 0 0 0 399.338 48Z" transform="matrix(1, 0, 0, 1, 0, 0)"></path><path fill="rgba(255,255,255,1)" d="M456 184h0a32 32 0 0 1-32-32H400a24 24 0 0 1-24-24h0a24 24 0 0 1 24-24h56Z" transform="matrix(1, 0, 0, 1, 0, 0)"></path><path fill="rgba(255,255,255,1)" transform="matrix(1, 0, 0, 1, 0, 0)" data-type="circle" data-cx="416" data-cy="128" data-r="8" d="M416 128m-8 0a8 8 0 1 0 16 0a8 8 0 1 0 -16 0"></path><path fill="rgba(255,255,255,1)" d="M328 232a55.993 55.993 0 0 1-56 56H80l21.72-16 21.71-16 10.86-8L156 232l10.86-8 21.72-16 11.22-8.27A121.677 121.677 0 0 1 272 176a55.993 55.993 0 0 1 56 56Z" transform="matrix(1, 0, 0, 1, 0, 0)"></path><path fill="#060a3b" transform="matrix(1, 0, 0, 1, 0, 0)" data-type="polygon" d="M88 344L24 384L72 384L136 344L88 344Z"></path><path fill="#060a3b" transform="matrix(1, 0, 0, 1, 0, 0)" data-type="polygon" d="M136 344L72 384L120 384L184 344L136 344Z"></path><path fill="#060a3b" transform="matrix(1, 0, 0, 1, 0, 0)" data-type="polygon" d="M456 120L488 144L456 160L456 120Z"></path><path fill="rgba(255,255,255,1)" transform="matrix(1, 0, 0, 1, 0, 0)" data-type="polygon" d="M224 256L224 272L101.72 272L123.43 256L224 256Z"></path><path fill="rgba(255,255,255,1)" transform="matrix(1, 0, 0, 1, 0, 0)" data-type="polygon" d="M256 232L256 248L134.29 248L156 232L256 232Z"></path><path fill="rgba(255,255,255,1)" transform="matrix(1, 0, 0, 1, 0, 0)" data-type="polygon" d="M288 208L288 224L166.86 224L188.58 208L288 208Z"></path><path fill="rgba(255,255,255,1)" d="M384 264H368a8 8 0 0 1 0-16h16a8 8 0 0 1 0 16zM416 240H400a8 8 0 0 1 0-16h16a8 8 0 0 1 0 16zM416 288H400a8 8 0 0 1 0-16h16a8 8 0 0 1 0 16zM376 304H360a8 8 0 0 1 0-16h16a8 8 0 0 1 0 16z" transform="matrix(1, 0, 0, 1, 0, 0)"></path><path fill="#060a3b" d="M40 448H472a0 0 0 0 1 0 0v32a0 0 0 0 1 0 0H40a16 16 0 0 1-16-16v0a16 16 0 0 1 16-16Z" transform="matrix(1, 0, 0, 1, 0, 0)"></path><path fill="rgba(255,255,255,1)" transform="matrix(1, 0, 0, 1, 0, 0)" data-type="polygon" d="M344 448L312 448L264 344L296 344L344 448Z"></path><path fill="rgba(255,255,255,1)" transform="matrix(1, 0, 0, 1, 0, 0)" data-type="polygon" d="M280 448L248 448L200 344L232 344L280 448Z"></path><path fill="#060a3b" transform="matrix(1, 0, 0, 1, 0, 0)" data-type="circle" data-cx="472" data-cy="464" data-r="16" d="M472 464m-16 0a16 16 0 1 0 32 0a16 16 0 1 0 -32 0"></path><path transform="matrix(1, 0, 0, 1, 0, 0)" data-type="circle" data-cx="416" data-cy="128" data-r="8" d="M416 128m-8 0a8 8 0 1 0 16 0a8 8 0 1 0 -16 0"></path><path d="M368 264h16a8 8 0 0 0 0-16H368a8 8 0 0 0 0 16zM400 240h16a8 8 0 0 0 0-16H400a8 8 0 0 0 0 16zM416 272H400a8 8 0 0 0 0 16h16a8 8 0 0 0 0-16zM360 304h16a8 8 0 0 0 0-16H360a8 8 0 0 0 0 16z" transform="matrix(1, 0, 0, 1, 0, 0)" fill="#060a3b"></path><path d="M472 440H349.119L308.5 352H348A116.131 116.131 0 0 0 464 236V164.944l27.578-13.789A8 8 0 0 0 492.8 137.6L464 116s-.036-20.881-.109-21.316A65.434 65.434 0 0 0 399.34 40H288a8 8 0 0 0-4.8 14.4l58.682 44.011-40.888 76.562A63.585 63.585 0 0 0 272 168a128.841 128.841 0 0 0-76.947 25.287L75.255 281.56A8 8 0 0 0 80 296h60.19L83.516 337.368 19.76 377.216A8 8 0 0 0 24 392h96a8 8 0 0 0 4.24-1.216L186.3 352h8.586L235.5 440H40a24 24 0 0 0 0 48H472a24 24 0 0 0 0-48Zm-140.5 0H317.118L276.5 352h14.379Zm-46.378 0L244.5 352h14.378L299.5 440ZM448 120v54.629A24.042 24.042 0 0 1 432 152a8 8 0 0 0-8-8H400a16 16 0 0 1 0-32h48Zm24.845 22.634L464 147.056V136ZM115.2 272H224V256H136.915l10.857-8H256V232H169.486l10.857-8H288V208H202.057l2.486-1.832A112.96 112.96 0 0 1 272 184a48 48 0 0 1 0 96H104.344Zm52.128 24H272a63.959 63.959 0 0 0 42.3-111.972l43.439-81.34c.084-.158.163-.318.238-.482A11.936 11.936 0 0 0 354.24 87.68L312 56h87.34a49.41 49.41 0 0 1 48.521 40H400a32 32 0 0 0 0 64h16.8A40.117 40.117 0 0 0 448 191.187V236A100.112 100.112 0 0 1 348 336H112.529ZM90.294 352h17.811l-38.4 24H51.9Zm27.412 24H99.9l38.4-24H156.1Zm94.8-24h14.379L267.5 440H253.118ZM32 464a7.977 7.977 0 0 1 8-8H449.376a23.944 23.944 0 0 0 0 16H40A8.009 8.009 0 0 1 32 464Zm440 8a8 8 0 1 1 8-8A8.009 8.009 0 0 1 472 472Z" transform="matrix(1, 0, 0, 1, 0, 0)" fill="rgba(6,10,59,1)"></path></g><path text="Automated Hotel" fill="#060a3b" space="preserve" text-anchor="middle" offset="0.5" font-scale="contain" font-size="48" font-family="Bungee" transform="matrix(2.2061622048159157, 0, 0, 2.2061622048159157, 239.5072321795023, 109.80942963449183)" data-fl-textpath="" font-weight="400" font-style="normal" path="M-78.3008127488618 77.20615497949875C-79.34982492724377 -42.67381585758007 90.59014797063611 -42.67381585758007 90.59014797063611 77.20615497949875" letter-spacing="2" d="M-91.16375122580776 67.79487068294863L-91.16375122580776 67.79487068294863L-87.35890583548989 69.27718359046068L-87.07439606341464 65.25723903989861L-91.049382533311 66.17891282391375Q-91.2965494730289 66.2716948475524 -91.40406573357096 66.37436058535744Q-91.51228797369633 66.48700137167505 -91.52287766744604 66.63662709936345L-91.52287766744604 66.63662709936345L-91.56876634036139 67.28500525267992Q-91.5793560341111 67.43463098036834 -91.48807730398524 67.5613913583522Q-91.39609259427607 67.6781766878235 -91.16375122580776 67.79487068294863ZM-82.70893860077749 69.86693329677787L-79.11792113625555 70.12108594677065Q-78.62914375914005 70.155678946353 -78.4252242426966 70.39066156446223Q-78.22130472625315 70.62564418257146 -78.25589772583551 71.11442155968695L-78.25589772583551 71.11442155968695L-78.52275800832793 74.88498989743499Q-78.55664502832695 75.36379222603793 -78.7916276464362 75.56771174248138Q-79.02661026454543 75.77163125892483 -79.51538764166092 75.73703825934247L-79.51538764166092 75.73703825934247L-86.27847053317724 75.25838410185608Q-87.056524317157 75.20331769435764 -88.03708565841357 74.89331857172486Q-89.01694102008683 74.5733444005795 -90.31759256202103 73.97001566227492L-90.31759256202103 73.97001566227492L-95.98488146669447 71.3233127188063Q-96.40321885898489 71.14332986903541 -96.59010353108266 70.8093027453839Q-96.76630717508453 70.46600655280311 -96.73030221633556 69.95727907866251L-96.73030221633556 69.95727907866251L-96.24176434468278 63.0545455079703Q-96.20717134510043 62.565768130854835 -95.98507902818318 62.260686170119136Q-95.75301166275337 61.95631018896677 -95.31349488296355 61.83704158336082L-95.31349488296355 61.83704158336082L-89.32992712496578 60.014922793202125Q-87.95726566553361 59.60079658322549 -86.9421113246947 59.42201832874279Q-85.92766296343908 59.25321512277266 -85.14960917945932 59.308281530271096L-85.14960917945932 59.308281530271096L-78.386526287943 59.78693568775749Q-77.8977489108275 59.82152868733984 -77.69382939438405 60.05651130544908Q-77.48920389835729 60.281518875045734 -77.52379689793965 60.770296252161216L-77.52379689793965 60.770296252161216L-77.79842295584851 64.65059012354745Q-77.83442791459748 65.15931759768806 -78.07082249187334 65.38318721115664Q-78.30792304873252 65.61703187313778 -78.79670042584802 65.58243887355542L-78.79670042584802 65.58243887355542L-82.38771789036996 65.32828622356264L-82.70893860077749 69.86693329677787ZM-89.65369811001219 35.7911813155371L-77.36990664866762 39.132044577360084Q-76.23126769152806 39.44172396847958 -75.38712192751657 40.034022819653096Q-74.55262564619271 40.62369726920696 -74.12740816596413 41.651311055854464Q-73.70481508735517 42.688574325189606 -73.73264311196499 44.27694632225022Q-73.76309553819448 45.87496780199845 -74.39032752529243 48.18119416434044L-74.39032752529243 48.18119416434044Q-75.01755951239038 50.48742052668243 -75.79804718663483 51.871089197409816Q-76.58115926249893 53.26440735082483 -77.4682714277871 53.93510251719902Q-78.35800799469494 54.61544716626085 -79.37621238939478 54.70123650484062Q-80.40144186516257 54.774751959113104 -81.54008082230213 54.465072567993616L-81.54008082230213 54.465072567993616L-93.8238722836467 51.12420930617063Q-94.29669693534021 50.995613626807454 -94.45387312045516 50.73523765473492Q-94.5987754212628 50.46783660159443 -94.47017974189961 49.995011949900885L-94.47017974189961 49.995011949900885L-93.40992148755831 46.09662094410103Q-93.28132580819513 45.62379629240749 -93.0209498361226 45.466620107292556Q-92.75354878298208 45.32171780648491 -92.28072413128854 45.450313485848085L-92.28072413128854 45.450313485848085L-80.96188093870633 48.5287365857054Q-80.46975732163753 48.6625810683079 -80.02967376440411 48.378105300178575Q-79.58959020717066 48.09362953204924 -79.24054479175632 46.81024833459534L-79.24054479175632 46.81024833459534Q-78.88100176986336 45.48826920639093 -79.11900640238323 45.02973480757326Q-79.35438663328343 44.561550926067966 -79.84651025035222 44.427706443465475L-79.84651025035222 44.427706443465475L-91.16535344293445 41.349283343608164Q-91.63817809462797 41.22068766424498 -91.79272987812325 40.95066220948482Q-91.94025658055055 40.692910639031936 -91.81166090118737 40.22008598733839L-91.81166090118737 40.22008598733839L-90.7855198679016 36.44713825647766Q-90.65692418853843 35.9743136047841 -90.39654821646589 35.81713741966918Q-90.1265227617057 35.662585636173915 -89.65369811001219 35.7911813155371L-89.65369811001219 35.7911813155371ZM-66.87858713381407 28.47270907714012L-66.87858713381407 28.47270907714012L-68.81746547697813 32.16454476828474Q-69.04529530627079 32.59835759530175 -69.34235935604246 32.69083975754532Q-69.63477381746124 32.77446859678855 -70.06858664447823 32.54663876749589L-70.06858664447823 32.54663876749589L-81.24148027091596 26.678858266121672L-82.99902466831647 30.025414360252775Q-83.22685449760914 30.459227187269775 -83.52391854738082 30.551709349513356Q-83.8209825971525 30.644191511756933 -84.25479542416949 30.416361682464277L-84.25479542416949 30.416361682464277L-87.00817887727735 28.970339704708824Q-87.44199170429435 28.74250987541616 -87.53447386653794 28.445445825644477Q-87.61810270578115 28.15303136422571 -87.3902728764885 27.71921853720871L-87.3902728764885 27.71921853720871L-81.08078148158769 15.705259225738054Q-80.85295165229503 15.271446398721054 -80.56474092552371 15.174314648124557Q-80.26767687575202 15.081832485880987 -79.83386404873502 15.30966231517365L-79.83386404873502 15.30966231517365L-77.08048059562715 16.755684292929104Q-76.64666776861017 16.98351412222176 -76.55418560636659 17.280578171993437Q-76.461703444123 17.577642221765117 -76.68953327341566 18.011455048782118L-76.68953327341566 18.011455048782118L-78.44707767081618 21.35801114291322L-67.27418404437847 27.22579164428744Q-66.84037121736148 27.453621473580103 -66.7478890551179 27.750685523351784Q-66.6507573045214 28.03889625012312 -66.87858713381407 28.47270907714012ZM-62.16460881100181-0.18496849916675728L-55.580116936546254 5.60790356529564Q-54.69417618262863 6.387332189704491 -54.19708930741084 7.290827977456825Q-53.70090507735837 8.180210465392829 -53.7782370799515 9.297582275210374Q-53.85556908254463 10.414954085027922 -54.586583890854676 11.836297586800612Q-55.32420402649021 13.265149061064115 -56.90287725728441 15.059554486371844L-56.90287725728441 15.059554486371844Q-58.48155048807861 16.853959911679574 -59.81139780532418 17.775103827045008Q-61.14124512256974 18.69624774241045 -62.23966138391539 18.915295035960167Q-63.331472317935535 19.126834357019057 -64.28342413344741 18.755501970950128Q-65.24288392145012 18.37756425755571 -66.12882467536774 17.59813563314686L-66.12882467536774 17.59813563314686L-72.7133165498233 11.805263568684463Q-73.59925730374093 11.025834944275612 -74.0963441789587 10.122339156523275Q-74.58592308168568 9.225448696096443 -74.52270437890888 8.108979531444234Q-74.46038832129739 6.978397066975688 -73.70865488584553 5.5486429475468455Q-72.96442942288449 4.112283500792508 -71.3857561920903 2.317878075484778L-71.3857561920903 2.317878075484778Q-69.80708296129609 0.5234726501770481 -68.48384097137603-0.3901632926975509Q-67.17471228127229-1.3028965904068386 -66.06128007494499-1.5087332293055589Q-64.95535584110851-1.721175195529785 -64.01000935292214-1.3423348369700285Q-63.050549564919436-0.9643971235756084 -62.16460881100181-0.18496849916675728L-62.16460881100181-0.18496849916675728ZM-68.15756395008509 8.034903075312702L-62.96955495892342 12.599184257232327Q-62.5791403894004 12.942661278158258 -62.06535891385249 12.888544779899274Q-61.55248008346991 12.82031498182397 -60.63433958522558 11.77670680559897L-60.63433958522558 11.77670680559897Q-59.71619908698126 10.733098629373977 -59.72046771330044 10.223214545655583Q-59.72563898478495 9.699217162120856 -60.11605355430797 9.355740141194925L-60.11605355430797 9.355740141194925L-65.30406254546963 4.7914589592753Q-65.67195319752017 4.467797920325861 -66.19234000039359 4.5294223910756735Q-66.70612147594149 4.583538889334651 -67.62426197418581 5.627147065559644L-67.62426197418581 5.627147065559644Q-68.54240247243014 6.670755241784644 -68.53723120094563 7.194752625319364Q-68.52545460213562 7.711242036363263 -68.15756395008509 8.034903075312702L-68.15756395008509 8.034903075312702ZM-44.68346892817855 3.2260327532947812L-44.68346892817855 3.2260327532947812L-47.89463338827809 5.31345288594504Q-48.30546121737699 5.580511858529537 -48.60981855690831 5.515962576012868Q-48.91417589643962 5.451413293496195 -49.181234869024124 5.040585464397299L-49.181234869024124 5.040585464397299L-58.26123993689704-8.927560724965197Q-58.52829890948154-9.338388554064089 -58.46374962696488-9.642745893595414Q-58.39375016133424-9.938718991716549 -57.98292233223534-10.205777964301046L-57.98292233223534-10.205777964301046L-54.511846388420174-12.462153773484356Q-54.16809249060273-12.685611281157097 -53.843614676476385-12.681849879851Q-53.51913686235003-12.6780884785449 -53.10284180224312-12.459688792348754L-53.10284180224312-12.459688792348754L-48.87407107032783-10.211134123923571Q-48.639721720374176-10.08914895197099 -48.50976171654285-10.054358185894902Q-48.37435152959755-10.011183178408626 -48.24858790844483-10.092935925118166L-48.24858790844483-10.092935925118166L-48.05575035601065-10.218290136739462Q-47.92160249344775-10.30549306656297 -47.90609633500978-10.446771370100691Q-47.88513999345784-10.579665432228232 -47.90988330815695-10.837905182030042L-47.90988330815695-10.837905182030042L-48.27351874997853-15.598994265995096Q-48.3041387052171-16.06810237543383 -48.17586748319364-16.36617366489428Q-48.047596261170185-16.664244954354718 -47.69545812194256-16.893152645141427L-47.69545812194256-16.893152645141427L-44.207613695307025-19.160428820552674Q-43.796785866208126-19.427487793137175 -43.49787870979078-19.371322752030686Q-43.19352137025946-19.306773469514013 -42.92646239767496-18.89594564041512L-42.92646239767496-18.89594564041512L-33.846457329802035-4.927799451052625Q-33.57939835721754-4.516971621953729 -33.64394763973421-4.212614282422406Q-33.70849692225087-3.9082569428910876 -34.11932475134977-3.641197970306589L-34.11932475134977-3.641197970306589L-37.43948434978167-1.48292545717473Q-37.85031217888057-1.215866484590233 -38.15466951841189-1.280415767106902Q-38.45064261653303-1.350415232737543 -38.717701589117524-1.7612430618364385L-38.717701589117524-1.7612430618364385L-43.65011730725978-9.348981538050761L-43.393020546581994-6.164581868466403Q-43.351500225115494-5.678705276207296 -43.51079228796191-5.3366145883566425Q-43.68391877533249-4.997457958802208 -44.08636236302121-4.735849169331679L-44.08636236302121-4.735849169331679L-44.949939228269905-4.174480308592841Q-45.360767057368804-3.9074213360083405 -45.73261626166003-3.892316063154766Q-46.10991564906523-3.8855950317113823 -46.54549531681027-4.115313017613925L-46.54549531681027-4.115313017613925L-49.343017224773064-5.648307203665578L-44.41060150663081 1.9394312725487453Q-44.14354253404631 2.350259101647641 -44.208091816562984 2.6546164411789626Q-44.27264109907966 2.958973780710288 -44.68346892817855 3.2260327532947812ZM-26.789354485685504-20.484888668228464L-26.789354485685504-20.484888668228464L-26.696007957173002-16.402562563467274L-22.875307966675997-17.684417306648495L-25.253489973376535-21.00017519030131Q-25.43411581390213-21.1927220826014 -25.570210720421436-21.25253994297355Q-25.71578627207845-21.309177022345253 -25.857995949144097-21.261465307338508L-25.857995949144097-21.261465307338508L-26.474237883095228-21.054714542309277Q-26.61644756016087-21.007002827302536 -26.698407491808894-20.874027003920038Q-26.770886778319202-20.744231961537995 -26.789354485685504-20.484888668228464ZM-25.453899222543004-11.882920333007451L-24.30881806238112-8.469888083431963Q-24.152959793359088-8.005336471684188 -24.291556804378807-7.726785096644683Q-24.43015381539853-7.448233721605176 -24.894705427146302-7.2923754525831415L-24.894705427146302-7.2923754525831415L-28.478389289200564-6.090040234413164Q-28.93346025581063-5.937362746391578 -29.212011630850135-6.075959757411301Q-29.49056300588964-6.21455676843102 -29.646421274911674-6.6791083801787945L-29.646421274911674-6.6791083801787945L-31.802990793216555-13.106985783545962Q-32.05109171125163-13.84647610428732 -32.14163432799157-14.870879362069081Q-32.22269629959379-15.898463400851291 -32.165408051630855-17.331089680327324L-32.165408051630855-17.331089680327324L-31.899319645046496-23.580281384850508Q-31.893883551000187-24.035660840778768 -31.65729930760292-24.336539380685064Q-31.408053638067496-24.6311180564541 -30.9245407360443-24.793337887477033L-30.9245407360443-24.793337887477033L-24.363934300749197-26.99443833978821Q-23.89938268900142-27.150296608810244 -23.532386424585717-27.06246869807044Q-23.162209379169564-26.96516014219292 -22.883226119084583-26.605204116278152L-22.883226119084583-26.605204116278152L-18.901985503975002-21.781002299956423Q-17.99224794789155-20.672815682526256 -17.43715371940384-19.80427069376653Q-16.89154013605384-18.932544924006354 -16.643439218018766-18.193054603264997L-16.643439218018766-18.193054603264997L-14.486869699713885-11.765177199897828Q-14.331011430691852-11.300625588150053 -14.469608441711571-11.02207421311055Q-14.598724807593582-10.746703619071491 -15.063276419341355-10.590845350049458L-15.063276419341355-10.590845350049458L-18.751247377910424-9.353521540874532Q-19.234760279933617-9.191301709851599 -19.532272945248543-9.32353715887042Q-19.83926625570118-9.452591826888792 -19.995124524723213-9.917143438636565L-19.995124524723213-9.917143438636565L-21.140205684885096-13.330175688212055L-25.453899222543004-11.882920333007451ZM-2.274255873231673-12.368844617853066L-2.274255873231673-12.368844617853066L-6.41755576208082-11.897711907183721Q-6.904418338947985-11.842350989143439 -7.14786562237582-12.036086427800408Q-7.381376934847181-12.230951681111257 -7.436737852887464-12.717814257978423L-7.436737852887464-12.717814257978423L-8.862563946088216-25.257009605047067L-12.618360967634924-24.829939665879174Q-13.10522354450209-24.77457874783889 -13.348670827929924-24.968314186495856Q-13.592118111357756-25.16204962515282 -13.647479029398038-25.64891220201999L-13.647479029398038-25.64891220201999L-13.998851386755753-28.738999169483023Q-14.054212304796035-29.225861746350187 -13.860476866139068-29.469309029778024Q-13.665611612828217-29.702820342249385 -13.17874903596105-29.758181260289668L-13.17874903596105-29.758181260289668L 0.30436355197250586-31.291339745609335Q 0.7912261288396722-31.346700663649617  1.0335435976136216-31.16290119594912Q 1.276990881041454-30.969165757292153  1.3323517990817368-30.48230318042499L 1.3323517990817368-30.48230318042499L 1.6837241564394496-27.392216212961955Q 1.7390850744797324-26.905353636094787  1.5453496358227659-26.661906352666954Q 1.3516141971657993-26.418459069239123  0.864751620298633-26.36309815119884L 0.864751620298633-26.36309815119884L-2.8910454012480775-25.936028212030944L-1.4652193080473261-13.396832864962299Q-1.4098583900070434-12.909970288095133 -1.6035938286640106-12.666523004667301Q-1.7873932963645065-12.42420553589335 -2.274255873231673-12.368844617853066ZM 19.733706574233043-11.825089113601909L 19.733706574233043-11.825089113601909L 7.848805419661289-12.861440668847049Q 7.360657761175107-12.904006658961896  7.160600685579813-13.14228625629297Q 6.960543609984519-13.380565853624041  7.003109600099365-13.868713512110224L 7.003109600099365-13.868713512110224L 8.450353264004145-30.465733900640437Q 8.492919254118991-30.953881559126614  8.731198851450067-31.153938634721914Q 8.968609755105327-31.344033513205243  9.456757413591511-31.3014675230904L 9.456757413591511-31.3014675230904L 21.341658568163265-30.265115967845258Q 21.829806226649442-30.222549977730413  22.03073199592055-29.9942325775113Q 22.23078907151585-29.75595298018022  22.188223081401002-29.26780532169404L 22.188223081401002-29.26780532169404L 21.92674628498123-26.269183990993202Q 21.884180294866386-25.78103633250702  21.645900697535307-25.58097925691173Q 21.407621100204228-25.380922181316436  20.91947344171805-25.42348817143128L 20.91947344171805-25.42348817143128L 13.846313492224386-26.040260681258648L 13.674312144413374-24.06774565308999L 18.675335094618752-23.631661427831766Q 19.163482753104933-23.58909543771692  19.364408522376042-23.36077803749781Q 19.55450340085937-23.12336713384255  19.511937410744526-22.635219475356365L 19.511937410744526-22.635219475356365L 19.273046649895896-19.895615269566566Q 19.23048065978105-19.407467611080385  19.00216325956194-19.206541841809276Q 18.763883662230864-19.006484766213983  18.275736003744683-19.04905075632883L 18.275736003744683-19.04905075632883L 13.274713053539305-19.485134981587052L 13.082731751184589-17.28348941984325L 20.155891700678254-16.666716910015882Q 20.64403935916443-16.624150919901037  20.84409643475973-16.38587132256996Q 21.044153510355027-16.147591725238886  21.001587520240182-15.659444066752707L 21.001587520240182-15.659444066752707L 20.740979417496224-12.670784933163832Q 20.698413427381375-12.18263727467765  20.4601338300503-11.982580199082356Q 20.22185423271922-11.782523123487064  19.733706574233043-11.825089113601909ZM 33.90876396831872-8.1590912648834L 33.90876396831872-8.1590912648834L 25.634927821989315-10.749947382789784Q 25.16731770529942-10.896374083801792  25.023112906423634-11.172064083586324Q 24.878908107547847-11.447754083370857  25.025334808559855-11.91536420006075L 25.025334808559855-11.91536420006075L 30.003842642968202-27.81410816751726Q 30.150269343980213-28.28171828420716  30.425959343764745-28.425923083082942Q 30.698661043528624-28.56058481835281  31.166271160218518-28.414158117340804L 31.166271160218518-28.414158117340804L 39.44010730654792-25.82330199943442Q 42.50343072404705-24.86405769280472  43.60964624392637-23.176370748025526Q 44.70333040017911-21.482129039661075  43.90545429466469-18.934131056881427L 43.90545429466469-18.934131056881427L 41.50883767810077-11.280594044936578Q 40.707973272565695-8.723052998551015  38.84629601100506-7.964727360194988Q 36.97208738581785-7.1998469582536995  33.90876396831872-8.1590912648834ZM 37.30483754399303-21.346838770375257L 34.38466008058265-22.261258576695155L 31.772885862531695-13.920620985124334L 34.69306332594208-13.006201178804433Q 35.284733269508884-12.820926577523933  35.654119414720704-13.03010084870839Q 36.03304862353845-13.236286819872198  36.22429982486026-13.84704289065084L 36.22429982486026-13.84704289065084L 38.09198733776855-19.81145764434851Q 38.28323853909036-20.422213715127153  38.08659563153246-20.798154623924237Q 37.89650748755984-21.161564169094753  37.30483754399303-21.346838770375257L 37.30483754399303-21.346838770375257ZM 54.00727151203266 1.674172373561138L 54.00727151203266 1.674172373561138L 50.78723539519464-0.6819828433672086Q 50.391792363302244-0.9713352384285869  50.34415983248016-1.2787944097139494Q 50.296527301658074-1.586253580999319  50.585879696719445-1.9816966128917066L 50.585879696719445-1.9816966128917066L 60.42386112880625-15.426759697232935Q 60.71321352386763-15.822202729125326  61.02067269515299-15.869835259947408Q 61.32222671551874-15.909397524812512  61.71766974741113-15.620045129751134L 61.71766974741113-15.620045129751134L 64.93770586424915-13.263889912822787Q 65.32507863018455-12.980442668681029  65.37861631192627-12.681053763352647Q 65.42624884274835-12.373594592067288  65.13689644768696-11.978151560174897L 65.13689644768696-11.978151560174897L 61.841822234539045-7.474943156175858L 65.31203659604368-4.935728260739289L 68.6071108091916-9.438936664738328Q 68.89646320425298-9.83437969663072  69.19585210958135-9.887917378372425Q 69.49740612994711-9.927479643237522  69.8928491618395-9.63812724817615L 69.8928491618395-9.63812724817615L 73.11288527867752-7.281972031247797Q 73.50832831056991-6.992619636186419  73.55379572635462-6.699135881777664Q 73.6014282571767-6.391676710492305  73.31207586211534-5.996233678599914L 73.31207586211534-5.996233678599914L 63.47409443002853 7.448829405741314Q 63.18474203496716 7.844272437633702  62.8772828636818 7.891904968455794Q 62.57789395835343 7.945442650197506  62.18245092646103 7.656090255136128L 62.18245092646103 7.656090255136128L 58.962414809623 5.299935038207774Q 58.566971777730615 5.010582643146403  58.51933924690853 4.7031234718610335Q 58.479776982043425 4.401569451495288  58.769129377104804 4.0061264196029L 58.769129377104804 4.0061264196029L 62.13506540128816-0.5939251758799919L 58.66485103978352-3.1331400713165607L 55.29891501560016 1.4669115241663313Q 55.00956262053879 1.862354556058719  54.70210344925343 1.909987086880811Q 54.39464427796807 1.9576196177028962  54.00727151203266 1.674172373561138ZM 86.78001938363764 15.003119134033959L 79.98235232824572 20.544294334660584Q 79.06772893880873 21.28985724648948  78.09473596686465 21.631448634770056Q 77.13581237035504 21.974472738962557  76.04640991582548 21.714276097814018Q 74.95700746129593 21.454079456665482  73.67537556704573 20.49908223800949Q 72.3874253430343 19.5363339736803  70.87734453009273 17.68383405778672L 70.87734453009273 17.68383405778672Q 69.36726371715115 15.831334141893144  68.67757672588763 14.368005110512339Q 67.98788973462413 12.904676079131534  67.95262949164908 11.785186590451378Q 67.92368757843529 10.673448147444429  68.44664642141784 9.795601891801471Q 68.97735631007357 8.91143730639725  69.89197969951057 8.165874394568355L 69.89197969951057 8.165874394568355L 76.68964675490248 2.62469919394173Q 77.60427014433948 1.8791362821128388  78.57726311628355 1.537544893832262Q 79.54250504255442 1.2022718353129491  80.6333402129959 1.4483991010270287Q 81.73824475887184 1.6959590826530544  83.02476226697136 2.6727767224166996Q 84.31903082074408 3.643276032419081  85.82911163368564 5.495775948312655L 85.82911163368564 5.495775948312655Q 87.33919244662722 7.3482758642062365  88.02256110812947 8.80385384991385Q 88.70736248554365 10.245362460187003  88.7271206371723 11.377488608389669Q 88.75462983447417 12.503296426831078  88.22535266173035 13.373391636800847Q 87.69464277307463 14.257556222205068  86.78001938363764 15.003119134033959L 86.78001938363764 15.003119134033959ZM 79.65870408787225 7.738914534884898L 74.3027315276946 12.10488039991682Q 73.89967715268847 12.433433547502432  73.8684870850546 12.949114824728003Q 73.85136639285518 13.466228817865506  74.72961422967057 14.543624166439592L 74.72961422967057 14.543624166439592Q 75.60786206648598 15.621019515013685  76.11149415030255 15.700736038712183Q 76.62919560955358 15.78188527832262  77.03224998455971 15.453332130737007L 77.03224998455971 15.453332130737007L 82.38822254473737 11.087366265705086Q 82.76802378272393 10.777768107403254  82.79289552059653 10.254335784504491Q 82.82408558823042 9.738654507278923  81.94583775141501 8.66125915870483L 81.94583775141501 8.66125915870483Q 81.06758991459962 7.583863810130744  80.5498884553486 7.502714570520311Q 80.03850532585881 7.429316376583067  79.65870408787225 7.738914534884898L 79.65870408787225 7.738914534884898ZM 82.15689847008969 35.18608553194272L 82.15689847008969 35.18608553194272L 80.33884701504434 31.433274731115237Q 80.12521506948744 30.992296963152295  80.22728870403711 30.698390561163794Q 80.33372217421038 30.413483705460266  80.77469994217331 30.199851759903375L 80.77469994217331 30.199851759903375L 92.13212735379032 24.697739202907588L 90.48410948806576 21.29591070719346Q 90.27047754250887 20.854932939230512  90.37255117705851 20.561026537242018Q 90.47462481160818 20.267120135253528  90.91560257957111 20.05348818969664L 90.91560257957111 20.05348818969664L 93.71446147419306 18.697579310753937Q 94.15543924215599 18.483947365197054  94.4493456441445 18.5860209997467Q 94.73425249984803 18.692454469919973  94.94788444540492 19.13343223788292L 94.94788444540492 19.13343223788292L 100.86418138664365 31.345816546570937Q 101.07781333220053 31.78679431453387  100.98473924393585 32.076340880898755Q 100.88266560938617 32.37024728288725  100.44168784142323 32.58387922844413L 100.44168784142323 32.58387922844413L 97.64282894680129 33.93978810738683Q 97.20185117883835 34.15342005294372  96.90794477684986 34.051346418394075Q 96.61403837486137 33.94927278384441  96.40040642930448 33.50829501588147L 96.40040642930448 33.50829501588147L 94.75238856357991 30.10646652016734L 83.3949611519629 35.60857907716313Q 82.95398338399997 35.82221102272002  82.66007698201146 35.72013738817036Q 82.37053041564658 35.62706329990567  82.15689847008969 35.18608553194272ZM 88.89256045782872 56.14692315349686L 88.89256045782872 56.14692315349686L 85.92826359842829 44.59106558560735Q 85.80651125466414 44.116432709809715  85.96494741190368 43.84866791735341Q 86.12338356914321 43.5809031248971  86.59801644494087 43.459150781132955L 86.59801644494087 43.459150781132955L 102.73553422206064 39.319571093152135Q 103.21016709785826 39.19781874938799  103.47793189031457 39.35625490662753Q 103.73601029755052 39.51717580557652  103.85776264131466 39.99180868137416L 103.85776264131466 39.99180868137416L 106.8220595007151 51.547666249263656Q 106.94381184447924 52.02229912506128  106.79506207246006 52.28757917580812Q 106.63662591522052 52.55534396826443  106.1619930394229 52.677096312028574L 106.1619930394229 52.677096312028574L 103.24639108809453 53.42500356657973Q 102.7717582122969 53.546755910343876  102.50399341984058 53.38831975310434Q 102.23622862738428 53.22988359586481  102.11447628362014 52.75525072006719L 102.11447628362014 52.75525072006719L 100.35030966989481 45.877917213611575L 98.43240539626353 46.36989607208709L 99.67974573441862 51.23246145270781Q 99.80149807818276 51.70709432850545  99.6527483061636 51.97237437925229Q 99.49182740721457 52.23045278648824  99.01719453141695 52.352205130252386L 99.01719453141695 52.352205130252386L 96.35343859581795 53.03550910035727Q 95.8788057200203 53.1572614441214  95.61352566927346 53.00851167210223Q 95.34576087681715 52.850075514862695  95.22400853305301 52.37544263906506L 95.22400853305301 52.37544263906506L 93.97666819489793 47.512877258444334L 91.83597706119836 48.06200517623771L 93.60014367492369 54.939338682693325Q 93.72189601868783 55.41397155849095  93.5634598614483 55.68173635094726Q 93.40502370420876 55.949501143403566  92.93039082841113 56.07125348716771L 92.93039082841113 56.07125348716771L 90.02447526230313 56.816676000009394Q 89.54984238650547 56.93842834377354  89.28207759404917 56.779992186534Q 89.01431280159287 56.62155602929448  88.89256045782872 56.14692315349686ZM 90.7803000630386 75.1138230474346L 90.7803000630386 75.1138230474346L 89.79615330654131 62.0608710762644Q 89.75931358838366 61.57225790087299  89.96215065081515 61.33634027519791Q 90.16498771324662 61.10042264952283  90.65360088863802 61.063582931365175L 90.65360088863802 61.063582931365175L 107.26644885194554 59.811032514005014Q 107.75506202733693 59.77419279584736  107.99097965301202 59.97702985827884Q 108.21692558123014 60.18061875169312  108.2537652993878 60.669231927084525L 108.2537652993878 60.669231927084525L 108.55374586152868 64.64793921241447Q 108.58983374870353 65.1265806903489  108.396968383729 65.36174648504118Q 108.19413132129752 65.59766411071627  107.70551814590613 65.63450382887392L 107.70551814590613 65.63450382887392L 95.01154728318676 66.59158466999006L 95.2761917891356 70.10162217484253L 99.43438962869095 69.78810865501109Q 99.9130311066254 69.75202076783626  100.14894873230048 69.95485783026773Q 100.38486635797557 70.15769489269921  100.42170607613322 70.6463080680906L 100.42170607613322 70.6463080680906L 100.70213903272106 74.36575121953942Q 100.73897875087872 74.85436439493081  100.53614168844723 75.0902820206059Q 100.33255279503295 75.31622794882401  99.85391131709851 75.35231583599884L 99.85391131709851 75.35231583599884L 91.776836376955 75.96129893207431Q 91.2882232015636 75.99813865023197  91.05305740687133 75.80527328525747Q 90.81713978119625 75.60243622282599  90.7803000630386 75.1138230474346Z"></path></svg>